<?xml version="1.0" encoding="utf-8"?>
<!-- Generator: Adobe Illustrator 19.0.0, SVG Export Plug-In . SVG Version: 6.00 Build 0)  -->
<svg version="1.1" id="Layer_1" xmlns="http://www.w3.org/2000/svg" xmlns:xlink="http://www.w3.org/1999/xlink" x="0px" y="0px"
	 width="100px" height="100px" viewBox="0 0 100 100" style="enable-background:new 0 0 100 100;" xml:space="preserve">
<style type="text/css">
	.st0{fill:#FFF200;}
	.st1{fill:#231F20;}
	.st2{fill:#ED1C24;}
	.st3{fill-rule:evenodd;clip-rule:evenodd;fill:#ED1C24;}
	.st4{fill:none;stroke:#221F1F;stroke-miterlimit:3.8637;}
	.st5{fill:#2E3092;}
	.st6{clip-path:url(#XMLID_88_);fill:#2E3092;}
	.st7{clip-path:url(#XMLID_89_);fill:#2E3092;}
	.st8{fill:#FBED1D;}
</style>
<g id="XMLID_43_">
	<g id="XMLID_39_">
		<rect id="XMLID_154_" x="0.4" y="0.4" class="st0" width="99.2" height="99.2"/>
		<path id="XMLID_151_" class="st1" d="M99.2,0.8v98.5H0.8V0.8H99.2 M100,0h-0.8H0.8H0v0.8v98.5v0.8h0.8h98.5h0.8v-0.8V0.8V0L100,0z
			"/>
	</g>
	<g id="XMLID_49_">
		<path id="XMLID_107_" class="st2" d="M52.9,82l0,2.4c0,0.6-0.2,1.1-0.9,1.1c-0.7,0-0.8-0.5-0.8-1.1v-7.9c0-0.6,0.2-1.1,0.8-1.1
			c0.7,0,0.9,0.5,0.9,1.1v1.9h3.2v-1.5c0-3-1.8-3.7-4.1-3.7c-2.2,0-4.1,0.9-4.1,4.1v6.4c0,3.2,1.9,4.1,4.1,4.1
			c2.7,0,4.1-1.3,4.1-3.9V82H52.9L52.9,82z"/>
		<path id="XMLID_2_" class="st3" d="M60.4,81.9l0.6-6.2h0l0.6,6.2H60.4L60.4,81.9z M59.2,73.5l-2.4,14h2.7l0.5-3.4h1.8l0.4,3.4h3.2
			l-1.8-14H59.2L59.2,73.5z"/>
		<polygon id="XMLID_103_" class="st2" points="72.8,87.5 72.8,85.4 69.3,85.4 69.3,73.5 66.1,73.5 66.1,87.5 72.8,87.5 		"/>
		<polygon id="XMLID_102_" class="st2" points="80.1,87.5 80.1,85.4 76.6,85.4 76.6,73.5 73.3,73.5 73.3,87.5 80.1,87.5 		"/>
		<polygon id="XMLID_101_" class="st2" points="49.4,67.8 53.1,67.8 54.3,56.9 54.3,56.9 55.6,67.8 59.4,67.8 61.2,53.7 58.3,53.7 
			57.3,63.7 57.3,63.7 56.4,53.7 52.9,53.7 51.6,63.7 51.6,63.7 50.9,53.7 47.6,53.7 49.4,67.8 		"/>
		<path id="XMLID_3_" class="st3" d="M65,56.8c0-0.6,0.2-1.1,0.9-1.1c0.7,0,0.9,0.5,0.9,1.1v7.9c0,0.6-0.2,1.1-0.9,1.1
			c-0.7,0-0.9-0.5-0.9-1.1V56.8L65,56.8z M69.9,57.6c0-3.2-2-4.1-4.1-4.1c-2.2,0-4.1,0.9-4.1,4.1v6.4c0,3.2,2,4.1,4.1,4.1
			c2.2,0,4.1-0.9,4.1-4.1V57.6L69.9,57.6z"/>
		<path id="XMLID_4_" class="st3" d="M74,67.8v-6.4h0.5c0.6,0,1.2,0.5,1.2,1.5v3c0,0.6,0.1,1.4,0.5,2h3.3c-0.4-0.6-0.5-1.4-0.5-2
			v-2.9c0-2-0.9-2.6-2.5-2.6v0c1.8-0.3,2.5-1.4,2.5-3.2c0-3-1.8-3.3-4.9-3.3h-3.3v14H74L74,67.8z M74,55.7c1.5,0,1.7,0.5,1.7,1.8
			c0,1.3-0.2,1.8-1.7,1.8V55.7L74,55.7z"/>
		<polygon id="XMLID_94_" class="st2" points="86.6,67.8 86.6,65.6 83.1,65.6 83.1,53.7 79.9,53.7 79.9,67.8 86.6,67.8 		"/>
		<path id="XMLID_5_" class="st3" d="M87.1,67.8h3.3c4.1,0,4.9-1.6,4.9-4.2v-5c0-4.2-1.2-4.8-4.9-4.8h-3.3V67.8L87.1,67.8z
			 M90.4,55.7c1.6,0,1.7,0.4,1.7,2.3v5.8c0,1.3-0.1,2-1.7,2V55.7L90.4,55.7z"/>
		<path id="XMLID_90_" class="st4" d="M5.7,49.3c0-19.9,16.4-36.1,36.6-36.1c20.2,0,36.6,15.9,36.6,35.8H43.3v36.3l-1.1,0
			C22,85.4,5.7,69.2,5.7,49.3L5.7,49.3z"/>
		<path id="XMLID_56_" class="st5" d="M42.2,86.4c-14.4,0-27.3-7.9-33.7-20.6L8.1,65l0.8-0.5c9.1-5.8,20.9-9.1,33.1-9.1l2.4,0v31
			L42.2,86.4z M10.8,65.7C17,77.2,28.9,84.4,42.2,84.4l0.1,0V57.4l-0.4,0C30.5,57.4,19.5,60.4,10.8,65.7z M42.2,43.4
			c-12.3,0-24.2-3.3-33.3-9.2l-0.8-0.5l0.4-0.8C15,20.1,27.9,12.2,42.2,12.2s27.3,7.9,33.7,20.6l0.4,0.8l-0.8,0.5
			C66.4,40.1,54.6,43.4,42.2,43.4z M10.8,32.9c8.7,5.4,19.8,8.4,31.4,8.4s22.7-3,31.4-8.4c-6.2-11.5-18.1-18.6-31.4-18.6
			C29,14.3,17,21.4,10.8,32.9z"/>
		<g id="XMLID_7_">
			<defs>
				<path id="XMLID_83_" d="M35.8,13.8C53,16.8,66,31.3,66,49l-22.7,0v33.7c-2.4,1-4.9,1.7-7.5,2.1c-17.1-3-30.2-17.7-30.2-35.5
					C5.7,31.6,18.7,16.8,35.8,13.8L35.8,13.8z"/>
			</defs>
			<clipPath id="XMLID_88_">
				<use xlink:href="#XMLID_83_"  style="overflow:visible;"/>
			</clipPath>
			<polygon id="XMLID_55_" class="st6" points="44.3,79.4 42.3,79.4 42.3,50.1 4,50.1 4,48 42.3,48 42.3,21.8 44.3,21.8 44.3,48 
				80.7,48 80.7,50.1 44.3,50.1 			"/>
		</g>
		<path id="XMLID_21_" class="st5" d="M35.8,85.9l-0.2,0c-18-3.1-31-18.5-31-36.5c0-18,13-33.4,31-36.5l0.2,0l0.2,0
			C54,15.9,67,31.2,67,49v1l-22.7,0v33.3l-0.6,0.3c-2.5,1-5.1,1.7-7.7,2.2L35.8,85.9z M35.8,14.8c-16.9,3-29.1,17.5-29.1,34.5
			s12.2,31.5,29.1,34.5c2.2-0.4,4.4-1,6.5-1.8V48L65,48C64.5,31.6,52.4,17.8,35.8,14.8z"/>
		<g id="XMLID_9_">
			<defs>
				<path id="XMLID_77_" d="M18.2,49.3c0-17.8,13.1-32.6,30.3-35.5C65.7,16.7,78.8,31.2,78.8,49H43.3v34.5
					C28.7,78.8,18.2,65.3,18.2,49.3L18.2,49.3z"/>
			</defs>
			<clipPath id="XMLID_89_">
				<use xlink:href="#XMLID_77_"  style="overflow:visible;"/>
			</clipPath>
			<rect id="XMLID_86_" x="4" y="48" class="st7" width="76.7" height="2"/>
		</g>
		<path id="XMLID_17_" class="st5" d="M44.4,85L43,84.6c-15.4-5-25.8-19.2-25.8-35.2c0-18.1,13.1-33.5,31.1-36.5l0.2,0l0.2,0
			c18,3.1,31.1,18.3,31.1,36.2v1H44.4V85z M48.5,14.8c-17,3-29.3,17.5-29.3,34.5c0,14.7,9.2,27.7,23.1,32.8V48h35.5
			C77.3,31.6,65.1,17.7,48.5,14.8z"/>
		<g id="XMLID_85_">
			<path id="XMLID_6_" class="st8" d="M21.3,78.9c6-3.2,13.1-5.1,20.7-5.1l1.4,0v11.6l-1.1,0C34.4,85.4,27.2,83,21.3,78.9L21.3,78.9
				z"/>
			<path id="XMLID_8_" class="st5" d="M42.2,86.4c-7.8,0-15.2-2.3-21.6-6.7l-1.4-0.9l1.5-0.8c6.3-3.4,13.7-5.2,21.2-5.2l2.4,0v13.6
				L42.2,86.4z M23.3,79c5.7,3.5,12.2,5.4,19,5.4l0.1,0v-9.6l-0.4,0C35.4,74.8,28.9,76.2,23.3,79z"/>
		</g>
		<g id="XMLID_16_">
			<path id="XMLID_12_" class="st8" d="M63.2,19.8c-6,3.3-13.2,5.3-21,5.3c-7.7,0-14.9-1.9-21-5.3c5.9-4.1,13.2-6.5,21-6.5
				C50,13.3,57.3,15.7,63.2,19.8L63.2,19.8z"/>
			<path id="XMLID_13_" class="st5" d="M42.2,26.1c-7.7,0-15.1-1.9-21.5-5.4l-1.4-0.8l1.4-0.9c6.3-4.4,13.8-6.7,21.6-6.7
				c7.8,0,15.2,2.3,21.6,6.7l1.4,0.9l-1.4,0.8C57.3,24.2,49.9,26.1,42.2,26.1z M23.3,19.7c5.7,2.8,12.2,4.3,19,4.3
				c6.7,0,13.2-1.5,19-4.3c-5.7-3.5-12.2-5.4-19-5.4C35.5,14.3,28.9,16.1,23.3,19.7z"/>
		</g>
	</g>
</g>
</svg>
